<?xml version="1.0" encoding="UTF-8" standalone="no"?><svg xmlns="http://www.w3.org/2000/svg" xmlns:xlink="http://www.w3.org/1999/xlink" contentStyleType="text/css" height="210px" preserveAspectRatio="none" style="width:487px;height:210px;background:#FFFFFF;" version="1.1" viewBox="0 0 487 210" width="487px" zoomAndPan="magnify"><defs/><g><!--MD5=[52e5471fcef04aa867dff13514d962b8]
cluster Ittango(DB)--><g id="cluster_Ittango(DB)"><path d="M8.5,6 L105.5,6 A3.75,3.75 0 0 1 108,8.5 L115,28.2969 L477.5,28.2969 A2.5,2.5 0 0 1 480,30.7969 L480,200.5 A2.5,2.5 0 0 1 477.5,203 L8.5,203 A2.5,2.5 0 0 1 6,200.5 L6,8.5 A2.5,2.5 0 0 1 8.5,6 " fill="#DDDDDD" style="stroke:#000000;stroke-width:1.5;"/><line style="stroke:#000000;stroke-width:1.5;" x1="6" x2="115" y1="28.2969" y2="28.2969"/><text fill="#000000" font-family="sans-serif" font-size="14" font-weight="bold" lengthAdjust="spacing" textLength="96" x="10" y="20.9951">Ittango(DB)</text></g><!--MD5=[7d0af41d9699f2731abf0529241983c6]
class users(tbl)--><g id="elem_users(tbl)"><rect codeLine="3" fill="#F1F1F1" height="145.7813" id="users(tbl)" rx="2.5" ry="2.5" style="stroke:#181818;stroke-width:0.5;" width="199" x="264.5" y="41"/><ellipse cx="325.75" cy="57" fill="#ADD1B2" rx="11" ry="11" style="stroke:#181818;stroke-width:1.0;"/><path d="M328.0938,52.6719 C327.1563,52.2344 326.5625,52.0938 325.6875,52.0938 C323.0625,52.0938 321.0625,54.1719 321.0625,56.8906 L321.0625,58.0156 C321.0625,60.5938 323.1719,62.4844 326.0625,62.4844 C327.2813,62.4844 328.4375,62.1875 329.1875,61.6406 C329.7656,61.2344 330.0938,60.7813 330.0938,60.3906 C330.0938,59.9375 329.7031,59.5469 329.2344,59.5469 C329.0156,59.5469 328.8125,59.625 328.625,59.8125 C328.1719,60.2969 328.1719,60.2969 327.9844,60.3906 C327.5625,60.6563 326.875,60.7813 326.1094,60.7813 C324.0625,60.7813 322.7656,59.6875 322.7656,57.9844 L322.7656,56.8906 C322.7656,55.1094 324.0156,53.7969 325.75,53.7969 C326.3281,53.7969 326.9375,53.9531 327.4063,54.2031 C327.8906,54.4844 328.0625,54.7031 328.1563,55.1094 C328.2188,55.5156 328.25,55.6406 328.3906,55.7656 C328.5313,55.9063 328.7656,56.0156 328.9844,56.0156 C329.25,56.0156 329.5156,55.875 329.6875,55.6563 C329.7969,55.5 329.8281,55.3125 329.8281,54.8906 L329.8281,53.4688 C329.8281,53.0313 329.8125,52.9063 329.7188,52.75 C329.5625,52.4844 329.2813,52.3438 328.9844,52.3438 C328.6875,52.3438 328.4844,52.4375 328.2656,52.75 L328.0938,52.6719 Z " fill="#000000"/><text fill="#000000" font-family="sans-serif" font-size="14" lengthAdjust="spacing" textLength="68" x="346.25" y="61.8467">users(tbl)</text><line style="stroke:#181818;stroke-width:0.5;" x1="265.5" x2="462.5" y1="73" y2="73"/><ellipse cx="275.5" cy="84" fill="none" rx="3" ry="3" style="stroke:#038048;stroke-width:1.0;"/><text fill="#000000" font-family="sans-serif" font-size="14" lengthAdjust="spacing" textLength="88" x="284.5" y="89.9951">PK id: bigint</text><ellipse cx="275.5" cy="100.2969" fill="none" rx="3" ry="3" style="stroke:#038048;stroke-width:1.0;"/><text fill="#000000" font-family="sans-serif" font-size="14" lengthAdjust="spacing" textLength="167" x="284.5" y="106.292">created_at: timestamp</text><ellipse cx="275.5" cy="116.5938" fill="none" rx="3" ry="3" style="stroke:#038048;stroke-width:1.0;"/><text fill="#000000" font-family="sans-serif" font-size="14" lengthAdjust="spacing" textLength="171" x="284.5" y="122.5889">updated_at: timestamp</text><line style="stroke:#181818;stroke-width:0.5;" x1="265.5" x2="462.5" y1="129.8906" y2="129.8906"/><ellipse cx="275.5" cy="140.8906" fill="#84BE84" rx="3" ry="3" style="stroke:#038048;stroke-width:1.0;"/><text fill="#000000" font-family="sans-serif" font-size="14" lengthAdjust="spacing" textLength="146" x="284.5" y="146.8857">name: varchara(255)</text><ellipse cx="275.5" cy="157.1875" fill="#84BE84" rx="3" ry="3" style="stroke:#038048;stroke-width:1.0;"/><text fill="#000000" font-family="sans-serif" font-size="14" lengthAdjust="spacing" textLength="145" x="284.5" y="163.1826">email: varchara(255)</text><ellipse cx="275.5" cy="173.4844" fill="#84BE84" rx="3" ry="3" style="stroke:#038048;stroke-width:1.0;"/><text fill="#000000" font-family="sans-serif" font-size="14" lengthAdjust="spacing" textLength="173" x="284.5" y="179.4795">password: varchara(255)</text></g><!--MD5=[a56a3ba2c7920d3ff76d8f5f4fa318e8]
class ittangos(tbl)--><g id="elem_ittangos(tbl)"><rect codeLine="12" fill="#F1F1F1" height="145.7813" id="ittangos(tbl)" rx="2.5" ry="2.5" style="stroke:#181818;stroke-width:0.5;" width="207" x="22.5" y="41"/><ellipse cx="76.25" cy="57" fill="#ADD1B2" rx="11" ry="11" style="stroke:#181818;stroke-width:1.0;"/><path d="M78.5938,52.6719 C77.6563,52.2344 77.0625,52.0938 76.1875,52.0938 C73.5625,52.0938 71.5625,54.1719 71.5625,56.8906 L71.5625,58.0156 C71.5625,60.5938 73.6719,62.4844 76.5625,62.4844 C77.7813,62.4844 78.9375,62.1875 79.6875,61.6406 C80.2656,61.2344 80.5938,60.7813 80.5938,60.3906 C80.5938,59.9375 80.2031,59.5469 79.7344,59.5469 C79.5156,59.5469 79.3125,59.625 79.125,59.8125 C78.6719,60.2969 78.6719,60.2969 78.4844,60.3906 C78.0625,60.6563 77.375,60.7813 76.6094,60.7813 C74.5625,60.7813 73.2656,59.6875 73.2656,57.9844 L73.2656,56.8906 C73.2656,55.1094 74.5156,53.7969 76.25,53.7969 C76.8281,53.7969 77.4375,53.9531 77.9063,54.2031 C78.3906,54.4844 78.5625,54.7031 78.6563,55.1094 C78.7188,55.5156 78.75,55.6406 78.8906,55.7656 C79.0313,55.9063 79.2656,56.0156 79.4844,56.0156 C79.75,56.0156 80.0156,55.875 80.1875,55.6563 C80.2969,55.5 80.3281,55.3125 80.3281,54.8906 L80.3281,53.4688 C80.3281,53.0313 80.3125,52.9063 80.2188,52.75 C80.0625,52.4844 79.7813,52.3438 79.4844,52.3438 C79.1875,52.3438 78.9844,52.4375 78.7656,52.75 L78.5938,52.6719 Z " fill="#000000"/><text fill="#000000" font-family="sans-serif" font-size="14" lengthAdjust="spacing" textLength="91" x="96.75" y="61.8467">ittangos(tbl)</text><line style="stroke:#181818;stroke-width:0.5;" x1="23.5" x2="228.5" y1="73" y2="73"/><ellipse cx="33.5" cy="84" fill="none" rx="3" ry="3" style="stroke:#038048;stroke-width:1.0;"/><text fill="#000000" font-family="sans-serif" font-size="14" lengthAdjust="spacing" textLength="88" x="42.5" y="89.9951">PK id: bigint</text><ellipse cx="33.5" cy="100.2969" fill="none" rx="3" ry="3" style="stroke:#038048;stroke-width:1.0;"/><text fill="#000000" font-family="sans-serif" font-size="14" lengthAdjust="spacing" textLength="167" x="42.5" y="106.292">created_at: timestamp</text><ellipse cx="33.5" cy="116.5938" fill="none" rx="3" ry="3" style="stroke:#038048;stroke-width:1.0;"/><text fill="#000000" font-family="sans-serif" font-size="14" lengthAdjust="spacing" textLength="171" x="42.5" y="122.5889">updated_at: timestamp</text><line style="stroke:#181818;stroke-width:0.5;" x1="23.5" x2="228.5" y1="129.8906" y2="129.8906"/><ellipse cx="33.5" cy="140.8906" fill="#84BE84" rx="3" ry="3" style="stroke:#038048;stroke-width:1.0;"/><text fill="#000000" font-family="sans-serif" font-size="14" lengthAdjust="spacing" textLength="140" x="42.5" y="146.8857">tango: varchara(50)</text><ellipse cx="33.5" cy="157.1875" fill="#84BE84" rx="3" ry="3" style="stroke:#038048;stroke-width:1.0;"/><text fill="#000000" font-family="sans-serif" font-size="14" lengthAdjust="spacing" textLength="164" x="42.5" y="163.1826">setumei: varchara(255)</text><ellipse cx="33.5" cy="173.4844" fill="#84BE84" rx="3" ry="3" style="stroke:#038048;stroke-width:1.0;"/><text fill="#000000" font-family="sans-serif" font-size="14" lengthAdjust="spacing" textLength="181" x="42.5" y="179.4795">sankoukizi: varchara(255)</text></g><!--MD5=[cfea1ae3574dd0861588c6f0846c5b16]
@startuml
package "Ittango(DB)" #DDDDDD {

class users(tbl){
  + PK id: bigint
  + name: varchara(255)
  + email: varchara(255)
  + password: varchara(255)
  + created_at: timestamp
  + updated_at: timestamp
}

class ittangos(tbl){
  + PK id: bigint
  + tango: varchara(50)
  + setumei: varchara(255)
  + sankoukizi: varchara(255)
  + created_at: timestamp
  + updated_at: timestamp
}




}
@enduml

PlantUML version 1.2022.7beta2(Unknown compile time)
(GPL source distribution)
Java Runtime: Java(TM) SE Runtime Environment
JVM: Java HotSpot(TM) 64-Bit Server VM
Default Encoding: UTF-8
Language: en
Country: US
--></g></svg>