<?xml version="1.0" encoding="UTF-8" standalone="no"?><svg xmlns="http://www.w3.org/2000/svg" xmlns:xlink="http://www.w3.org/1999/xlink" contentStyleType="text/css" height="416px" preserveAspectRatio="none" style="width:488px;height:416px;background:#FFFFFF;" version="1.1" viewBox="0 0 488 416" width="488px" zoomAndPan="magnify"><defs/><g><!--MD5=[52e5471fcef04aa867dff13514d962b8]
cluster Ittango(DB)--><g id="cluster_Ittango(DB)"><path d="M8.5,6 L105.5,6 A3.75,3.75 0 0 1 108,8.5 L115,28.2969 L478.5,28.2969 A2.5,2.5 0 0 1 481,30.7969 L481,406.5 A2.5,2.5 0 0 1 478.5,409 L8.5,409 A2.5,2.5 0 0 1 6,406.5 L6,8.5 A2.5,2.5 0 0 1 8.5,6 " fill="#DDDDDD" style="stroke:#000000;stroke-width:1.5;"/><line style="stroke:#000000;stroke-width:1.5;" x1="6" x2="115" y1="28.2969" y2="28.2969"/><text fill="#000000" font-family="sans-serif" font-size="14" font-weight="bold" lengthAdjust="spacing" textLength="96" x="10" y="20.9951">Ittango(DB)</text></g><!--MD5=[7d0af41d9699f2731abf0529241983c6]
class users(tbl)--><g id="elem_users(tbl)"><rect codeLine="3" fill="#F1F1F1" height="145.7813" id="users(tbl)" rx="2.5" ry="2.5" style="stroke:#181818;stroke-width:0.5;" width="199" x="22.5" y="41"/><ellipse cx="83.75" cy="57" fill="#ADD1B2" rx="11" ry="11" style="stroke:#181818;stroke-width:1.0;"/><path d="M86.0938,52.6719 C85.1563,52.2344 84.5625,52.0938 83.6875,52.0938 C81.0625,52.0938 79.0625,54.1719 79.0625,56.8906 L79.0625,58.0156 C79.0625,60.5938 81.1719,62.4844 84.0625,62.4844 C85.2813,62.4844 86.4375,62.1875 87.1875,61.6406 C87.7656,61.2344 88.0938,60.7813 88.0938,60.3906 C88.0938,59.9375 87.7031,59.5469 87.2344,59.5469 C87.0156,59.5469 86.8125,59.625 86.625,59.8125 C86.1719,60.2969 86.1719,60.2969 85.9844,60.3906 C85.5625,60.6563 84.875,60.7813 84.1094,60.7813 C82.0625,60.7813 80.7656,59.6875 80.7656,57.9844 L80.7656,56.8906 C80.7656,55.1094 82.0156,53.7969 83.75,53.7969 C84.3281,53.7969 84.9375,53.9531 85.4063,54.2031 C85.8906,54.4844 86.0625,54.7031 86.1563,55.1094 C86.2188,55.5156 86.25,55.6406 86.3906,55.7656 C86.5313,55.9063 86.7656,56.0156 86.9844,56.0156 C87.25,56.0156 87.5156,55.875 87.6875,55.6563 C87.7969,55.5 87.8281,55.3125 87.8281,54.8906 L87.8281,53.4688 C87.8281,53.0313 87.8125,52.9063 87.7188,52.75 C87.5625,52.4844 87.2813,52.3438 86.9844,52.3438 C86.6875,52.3438 86.4844,52.4375 86.2656,52.75 L86.0938,52.6719 Z " fill="#000000"/><text fill="#000000" font-family="sans-serif" font-size="14" lengthAdjust="spacing" textLength="68" x="104.25" y="61.8467">users(tbl)</text><line style="stroke:#181818;stroke-width:0.5;" x1="23.5" x2="220.5" y1="73" y2="73"/><ellipse cx="33.5" cy="84" fill="none" rx="3" ry="3" style="stroke:#038048;stroke-width:1.0;"/><text fill="#000000" font-family="sans-serif" font-size="14" lengthAdjust="spacing" textLength="88" x="42.5" y="89.9951">PK id: bigint</text><ellipse cx="33.5" cy="100.2969" fill="none" rx="3" ry="3" style="stroke:#038048;stroke-width:1.0;"/><text fill="#000000" font-family="sans-serif" font-size="14" lengthAdjust="spacing" textLength="167" x="42.5" y="106.292">created_at: timestamp</text><ellipse cx="33.5" cy="116.5938" fill="none" rx="3" ry="3" style="stroke:#038048;stroke-width:1.0;"/><text fill="#000000" font-family="sans-serif" font-size="14" lengthAdjust="spacing" textLength="171" x="42.5" y="122.5889">updated_at: timestamp</text><line style="stroke:#181818;stroke-width:0.5;" x1="23.5" x2="220.5" y1="129.8906" y2="129.8906"/><ellipse cx="33.5" cy="140.8906" fill="#84BE84" rx="3" ry="3" style="stroke:#038048;stroke-width:1.0;"/><text fill="#000000" font-family="sans-serif" font-size="14" lengthAdjust="spacing" textLength="146" x="42.5" y="146.8857">name: varchara(255)</text><ellipse cx="33.5" cy="157.1875" fill="#84BE84" rx="3" ry="3" style="stroke:#038048;stroke-width:1.0;"/><text fill="#000000" font-family="sans-serif" font-size="14" lengthAdjust="spacing" textLength="145" x="42.5" y="163.1826">email: varchara(255)</text><ellipse cx="33.5" cy="173.4844" fill="#84BE84" rx="3" ry="3" style="stroke:#038048;stroke-width:1.0;"/><text fill="#000000" font-family="sans-serif" font-size="14" lengthAdjust="spacing" textLength="173" x="42.5" y="179.4795">password: varchara(255)</text></g><!--MD5=[a56a3ba2c7920d3ff76d8f5f4fa318e8]
class ittangos(tbl)--><g id="elem_ittangos(tbl)"><rect codeLine="12" fill="#F1F1F1" height="145.7813" id="ittangos(tbl)" rx="2.5" ry="2.5" style="stroke:#181818;stroke-width:0.5;" width="208" x="257" y="41"/><ellipse cx="311.25" cy="57" fill="#ADD1B2" rx="11" ry="11" style="stroke:#181818;stroke-width:1.0;"/><path d="M313.5938,52.6719 C312.6563,52.2344 312.0625,52.0938 311.1875,52.0938 C308.5625,52.0938 306.5625,54.1719 306.5625,56.8906 L306.5625,58.0156 C306.5625,60.5938 308.6719,62.4844 311.5625,62.4844 C312.7813,62.4844 313.9375,62.1875 314.6875,61.6406 C315.2656,61.2344 315.5938,60.7813 315.5938,60.3906 C315.5938,59.9375 315.2031,59.5469 314.7344,59.5469 C314.5156,59.5469 314.3125,59.625 314.125,59.8125 C313.6719,60.2969 313.6719,60.2969 313.4844,60.3906 C313.0625,60.6563 312.375,60.7813 311.6094,60.7813 C309.5625,60.7813 308.2656,59.6875 308.2656,57.9844 L308.2656,56.8906 C308.2656,55.1094 309.5156,53.7969 311.25,53.7969 C311.8281,53.7969 312.4375,53.9531 312.9063,54.2031 C313.3906,54.4844 313.5625,54.7031 313.6563,55.1094 C313.7188,55.5156 313.75,55.6406 313.8906,55.7656 C314.0313,55.9063 314.2656,56.0156 314.4844,56.0156 C314.75,56.0156 315.0156,55.875 315.1875,55.6563 C315.2969,55.5 315.3281,55.3125 315.3281,54.8906 L315.3281,53.4688 C315.3281,53.0313 315.3125,52.9063 315.2188,52.75 C315.0625,52.4844 314.7813,52.3438 314.4844,52.3438 C314.1875,52.3438 313.9844,52.4375 313.7656,52.75 L313.5938,52.6719 Z " fill="#000000"/><text fill="#000000" font-family="sans-serif" font-size="14" lengthAdjust="spacing" textLength="91" x="331.75" y="61.8467">ittangos(tbl)</text><line style="stroke:#181818;stroke-width:0.5;" x1="258" x2="464" y1="73" y2="73"/><ellipse cx="268" cy="84" fill="none" rx="3" ry="3" style="stroke:#038048;stroke-width:1.0;"/><text fill="#000000" font-family="sans-serif" font-size="14" lengthAdjust="spacing" textLength="137" x="277" y="89.9951">PK tango_id: bigint</text><ellipse cx="268" cy="100.2969" fill="none" rx="3" ry="3" style="stroke:#038048;stroke-width:1.0;"/><text fill="#000000" font-family="sans-serif" font-size="14" lengthAdjust="spacing" textLength="167" x="277" y="106.292">created_at: timestamp</text><ellipse cx="268" cy="116.5938" fill="none" rx="3" ry="3" style="stroke:#038048;stroke-width:1.0;"/><text fill="#000000" font-family="sans-serif" font-size="14" lengthAdjust="spacing" textLength="171" x="277" y="122.5889">updated_at: timestamp</text><line style="stroke:#181818;stroke-width:0.5;" x1="258" x2="464" y1="129.8906" y2="129.8906"/><ellipse cx="268" cy="140.8906" fill="#84BE84" rx="3" ry="3" style="stroke:#038048;stroke-width:1.0;"/><text fill="#000000" font-family="sans-serif" font-size="14" lengthAdjust="spacing" textLength="140" x="277" y="146.8857">tango: varchara(50)</text><ellipse cx="268" cy="157.1875" fill="#84BE84" rx="3" ry="3" style="stroke:#038048;stroke-width:1.0;"/><text fill="#000000" font-family="sans-serif" font-size="14" lengthAdjust="spacing" textLength="174" x="277" y="163.1826">setumei: varchara(1000)</text><ellipse cx="268" cy="173.4844" fill="#84BE84" rx="3" ry="3" style="stroke:#038048;stroke-width:1.0;"/><text fill="#000000" font-family="sans-serif" font-size="14" lengthAdjust="spacing" textLength="182" x="277" y="179.4795">sankoukizi: varchara(500)</text></g><!--MD5=[710a17f6d0c32464a92c931fddb887a9]
class itkoshikis(tbl)--><g id="elem_itkoshikis(tbl)"><rect codeLine="21" fill="#F1F1F1" height="145.7813" id="itkoshikis(tbl)" rx="2.5" ry="2.5" style="stroke:#181818;stroke-width:0.5;" width="246" x="22" y="247"/><ellipse cx="90.75" cy="263" fill="#ADD1B2" rx="11" ry="11" style="stroke:#181818;stroke-width:1.0;"/><path d="M93.0938,258.6719 C92.1563,258.2344 91.5625,258.0938 90.6875,258.0938 C88.0625,258.0938 86.0625,260.1719 86.0625,262.8906 L86.0625,264.0156 C86.0625,266.5938 88.1719,268.4844 91.0625,268.4844 C92.2813,268.4844 93.4375,268.1875 94.1875,267.6406 C94.7656,267.2344 95.0938,266.7813 95.0938,266.3906 C95.0938,265.9375 94.7031,265.5469 94.2344,265.5469 C94.0156,265.5469 93.8125,265.625 93.625,265.8125 C93.1719,266.2969 93.1719,266.2969 92.9844,266.3906 C92.5625,266.6563 91.875,266.7813 91.1094,266.7813 C89.0625,266.7813 87.7656,265.6875 87.7656,263.9844 L87.7656,262.8906 C87.7656,261.1094 89.0156,259.7969 90.75,259.7969 C91.3281,259.7969 91.9375,259.9531 92.4063,260.2031 C92.8906,260.4844 93.0625,260.7031 93.1563,261.1094 C93.2188,261.5156 93.25,261.6406 93.3906,261.7656 C93.5313,261.9063 93.7656,262.0156 93.9844,262.0156 C94.25,262.0156 94.5156,261.875 94.6875,261.6563 C94.7969,261.5 94.8281,261.3125 94.8281,260.8906 L94.8281,259.4688 C94.8281,259.0313 94.8125,258.9063 94.7188,258.75 C94.5625,258.4844 94.2813,258.3438 93.9844,258.3438 C93.6875,258.3438 93.4844,258.4375 93.2656,258.75 L93.0938,258.6719 Z " fill="#000000"/><text fill="#000000" font-family="sans-serif" font-size="14" lengthAdjust="spacing" textLength="100" x="111.25" y="267.8467">itkoshikis(tbl)</text><line style="stroke:#181818;stroke-width:0.5;" x1="23" x2="267" y1="279" y2="279"/><ellipse cx="33" cy="290" fill="none" rx="3" ry="3" style="stroke:#038048;stroke-width:1.0;"/><text fill="#000000" font-family="sans-serif" font-size="14" lengthAdjust="spacing" textLength="146" x="42" y="295.9951">PK koshiki_id: bigint</text><ellipse cx="33" cy="306.2969" fill="none" rx="3" ry="3" style="stroke:#038048;stroke-width:1.0;"/><text fill="#000000" font-family="sans-serif" font-size="14" lengthAdjust="spacing" textLength="167" x="42" y="312.292">created_at: timestamp</text><ellipse cx="33" cy="322.5938" fill="none" rx="3" ry="3" style="stroke:#038048;stroke-width:1.0;"/><text fill="#000000" font-family="sans-serif" font-size="14" lengthAdjust="spacing" textLength="171" x="42" y="328.5889">updated_at: timestamp</text><line style="stroke:#181818;stroke-width:0.5;" x1="23" x2="267" y1="335.8906" y2="335.8906"/><ellipse cx="33" cy="346.8906" fill="#84BE84" rx="3" ry="3" style="stroke:#038048;stroke-width:1.0;"/><text fill="#000000" font-family="sans-serif" font-size="14" lengthAdjust="spacing" textLength="196" x="42" y="352.8857">koshiki_title: varchara(100)</text><ellipse cx="33" cy="363.1875" fill="#84BE84" rx="3" ry="3" style="stroke:#038048;stroke-width:1.0;"/><text fill="#000000" font-family="sans-serif" font-size="14" lengthAdjust="spacing" textLength="220" x="42" y="369.1826">koshiki_naiyou: varchara(1000)</text><ellipse cx="33" cy="379.4844" fill="#84BE84" rx="3" ry="3" style="stroke:#038048;stroke-width:1.0;"/><text fill="#000000" font-family="sans-serif" font-size="14" lengthAdjust="spacing" textLength="214" x="42" y="385.4795">koshiki_bikou: varchara(1000)</text></g><!--MD5=[5ae80ecdc13d6e7f35eeda85654805da]
@startuml
package "Ittango(DB)" #DDDDDD {

    class users(tbl){
    + PK id: bigint
    + name: varchara(255)
    + email: varchara(255)
    + password: varchara(255)
    + created_at: timestamp
    + updated_at: timestamp
    }

    class ittangos(tbl){
    + PK tango_id: bigint
    + tango: varchara(50)
    + setumei: varchara(1000)
    + sankoukizi: varchara(500)
    + created_at: timestamp
    + updated_at: timestamp
    }

    class itkoshikis(tbl){
    + PK koshiki_id: bigint
    + koshiki_title: varchara(100)
    + koshiki_naiyou: varchara(1000)
    + koshiki_bikou: varchara(1000)
    + created_at: timestamp
    + updated_at: timestamp
    }

}
@enduml

PlantUML version 1.2022.7beta2(Unknown compile time)
(GPL source distribution)
Java Runtime: Java(TM) SE Runtime Environment
JVM: Java HotSpot(TM) 64-Bit Server VM
Default Encoding: UTF-8
Language: en
Country: US
--></g></svg>